<?xml version="1.0" encoding="utf-8"?>
<!-- Generator: Adobe Illustrator 27.9.6, SVG Export Plug-In . SVG Version: 9.03 Build 54986)  -->
<svg version="1.1" id="Layer_1" xmlns="http://www.w3.org/2000/svg" xmlns:xlink="http://www.w3.org/1999/xlink" x="0px" y="0px"
	 viewBox="0 0 559.85 720" style="enable-background:new 0 0 559.85 720;" xml:space="preserve">
<style type="text/css">
	.st0{fill:#232426;}
</style>
<g>
	<g>
		<path class="st0" d="M334.07,248.29c0,0.32,24.36,76.43,68.33,213.97c0.72,1.98,2.03,3.54,3.91,4.68c1.87,1.15,3.8,1.72,5.78,1.72
			h4.22v4.06h-48.93v-4.06h4.54c1.25,0,2.29-0.5,3.12-1.48c0.84-0.99,1.25-2.11,1.25-3.36c-0.1-0.83-20.47-65.18-61.11-193.03
			l-59.08,186c0.62,1.77,1.27,3.62,1.95,5.55s1.96,3.46,3.83,4.61c1.88,1.15,3.81,1.72,5.79,1.72h4.22v4.06h-48.92v-4.06h4.53
			c1.35,0,2.42-0.5,3.21-1.48c0.78-0.99,1.17-2.11,1.17-3.36c0-0.62-17.66-52.98-52.99-157.08h-0.47
			c-10.52,0-19.85,7.77-27.98,23.29c-5.52,10.52-10.73,24.23-15.63,41.11c-19.38,60.64-29.17,91.54-29.38,92.68
			c0,1.36,0.44,2.5,1.33,3.44c0.89,0.93,2,1.41,3.36,1.41h2.81v4.06H88.86v-4.06h4.22c1.67,0,3.25-0.52,4.77-1.56
			c1.51-1.04,2.68-2.71,3.52-5l29.07-90.96c3.12-10.42,6.25-19.74,9.38-27.98c9.9-25.94,22.45-39.44,37.67-40.48l-15-44.38
			c-0.73-1.88-1.98-3.33-3.75-4.38c-1.78-1.04-3.7-1.56-5.79-1.56h-4.37v-4.06h48.92v4.06h-6.56c-0.84,0-1.54,0.36-2.11,1.09
			s-0.86,1.51-0.86,2.35c0.11,0.73,22.09,65.59,65.96,194.59l59.08-186c-0.62-1.97-1.3-3.93-2.03-5.86
			c-0.73-1.93-1.95-3.44-3.67-4.54c-1.72-1.09-3.63-1.64-5.71-1.64h-4.37v-4.06H334.07z"/>
		<path class="st0" d="M377.69,386.65c5.41,3.16,11.73,5.79,18.93,7.91c7.21,2.12,14.37,3.18,21.5,3.18c8.03,0,14.56-2.1,19.59-6.29
			c5.04-4.19,8.69-9.76,10.97-16.71c2.27-6.94,3.24-14.77,2.88-23.47s-1.95-17.56-4.8-26.58c-2.96-9.38-6.97-18.4-12.05-27.06
			c-5.07-8.66-10.93-16.41-17.55-23.27c-6.63-6.85-13.75-12.29-21.37-16.3c-7.62-4.01-15.49-6.02-23.61-6.02
			c-6.76,0-13,1.24-18.71,3.72c-5.71,2.48-10.18,6.34-13.4,11.57l-2-6.36c7.91-8.39,18.9-12.58,32.97-12.58c13.53,0,26.76,3,39.7,9
			s24.49,14.68,34.66,26.04c10.17,11.36,17.8,25.12,22.89,41.26c5.09,16.14,6.14,29.92,3.16,41.33
			c-2.99,11.41-9.07,20.14-18.26,26.18c-9.19,6.04-20.5,9.06-33.94,9.06c-12.27,0-25.67-3.47-40.22-10.42L377.69,386.65z"/>
	</g>
	<path class="st0" d="M279.61,4.13c-84.22,3.76-164.45,46.99-211.7,116.56c-36.62,51.14-49.17,114.42-46.5,176.23
		c0.23,31.72,0.19,95.49,0.01,127.2c0.01,20.54-0.5,42,2.62,62.22c9.56,76.76,56.05,148.05,121.84,188.71
		c39.67,25.87,86.69,39.1,133.74,41.86c-102.98,5.03-204.64-56.63-248.67-150.16c-9.88-19.14-16.31-40.84-21.5-61.77
		c-5.37-26.41-6.3-54.15-5.99-80.86c-0.16-31.69-0.22-95.51,0.01-127.2c-0.31-26.7,0.63-54.46,6.01-80.86
		c5.21-20.89,11.6-42.63,21.49-61.76C75,60.8,176.65-0.89,279.61,4.13L279.61,4.13z"/>
	<path class="st0" d="M279.61,4.13c109.4-5.14,214.45,63.4,255.42,165.06c6.12,14.51,10.93,31.48,14.72,46.87
		c5.36,26.42,6.32,54.14,6.01,80.86c0.17,31.72,0.23,95.49,0.01,127.2c0.3,26.7-0.62,54.47-5.99,80.86
		c-5.21,20.91-11.61,42.61-21.5,61.77c-44.01,93.51-145.7,155.21-248.67,150.16c47.05-2.78,94.07-15.98,133.74-41.86
		c65.78-40.67,112.28-111.94,121.84-188.71c4.94-35.7,1.75-89.27,2.42-125.81c-0.15-21.73,0.71-74.13,0.01-95.18
		c-1.09-51.24-16.61-102.35-46.3-144.64C444.06,51.13,363.84,7.88,279.61,4.13L279.61,4.13z"/>
</g>
</svg>
